<?xml version="1.0" standalone="no"?>
<!DOCTYPE svg PUBLIC "-//W3C//DTD SVG 20010904//EN"
 "http://www.w3.org/TR/2001/REC-SVG-20010904/DTD/svg10.dtd">
<svg version="1.0" xmlns="http://www.w3.org/2000/svg"
 width="335.000000pt" height="102.000000pt" viewBox="0 0 335.000000 102.000000"
 preserveAspectRatio="xMidYMid meet">

<g transform="translate(0.000000,102.000000) scale(0.100000,-0.100000)"
fill="#000000" stroke="none">
<path d="M214 991 c-101 -58 -214 -216 -214 -299 0 -43 41 -86 73 -76 35 10
40 21 23 45 -9 13 -16 35 -16 49 0 28 48 132 79 170 l21 25 0 -235 c0 -242
-11 -335 -46 -387 -13 -21 -13 -23 7 -23 59 0 123 74 139 160 13 72 9 600 -5
600 -5 0 -33 -13 -61 -29z"/>
<path d="M1136 912 c-3 -5 -8 -27 -12 -50 -6 -38 -9 -41 -43 -44 -29 -2 -37
-8 -39 -25 -3 -20 1 -23 34 -23 l37 0 -6 -121 c-4 -98 -9 -127 -24 -147 -26
-35 -43 -39 -43 -10 0 27 -18 56 -72 115 -43 49 -46 64 -18 101 24 30 14 48
-36 58 -52 10 -78 -24 -109 -140 -35 -130 -61 -199 -84 -220 -34 -31 -45 2
-49 148 -4 147 -14 176 -60 176 -53 0 -90 -45 -133 -165 l-18 -50 -1 87 c0 99
-12 121 -64 116 l-31 -3 -3 -168 c-2 -167 -2 -168 22 -192 27 -27 58 -32 73
-12 5 6 19 48 30 92 26 99 62 195 73 195 4 0 10 -48 12 -107 4 -118 20 -161
65 -182 42 -19 70 -13 106 24 27 28 36 32 40 20 10 -25 70 -55 110 -55 53 0
103 24 125 59 10 17 35 42 54 55 l37 24 6 -41 c9 -49 52 -97 88 -97 31 0 73
33 93 73 l16 31 13 -31 c17 -41 61 -73 101 -73 36 0 89 38 99 70 7 23 25 27
25 6 0 -24 39 -63 67 -69 38 -7 76 15 103 60 l22 37 13 -30 c31 -75 123 -99
173 -46 15 15 33 37 40 47 11 18 12 18 7 2 -3 -10 -5 -31 -5 -46 0 -22 -10
-33 -63 -64 -70 -41 -125 -90 -138 -125 -56 -146 116 -232 224 -113 42 47 65
116 74 221 6 75 6 75 58 126 63 60 82 94 98 177 12 58 15 62 42 65 l30 3 -3
-118 c-3 -110 -2 -120 20 -152 46 -68 118 -62 162 12 l24 40 20 -40 c45 -88
158 -82 197 11 l13 31 7 -27 c14 -57 81 -87 131 -60 11 6 31 31 44 55 l24 45
19 -40 c50 -101 173 -103 226 -5 9 17 27 29 57 36 43 11 67 35 92 94 15 36 15
37 -6 37 -11 0 -24 -14 -35 -38 -14 -32 -50 -62 -74 -62 -3 0 -3 20 -1 45 9
79 -7 136 -52 178 -44 42 -80 47 -136 21 -43 -20 -77 -77 -98 -163 -19 -76
-56 -146 -75 -146 -23 0 -32 52 -29 175 1 63 -2 121 -6 129 -6 10 -22 12 -57
8 -30 -4 -51 -2 -55 5 -4 6 -27 8 -57 5 -43 -4 -56 -10 -88 -45 -22 -23 -42
-58 -49 -83 -35 -138 -64 -199 -95 -199 -20 0 -27 48 -23 175 4 137 2 139 -89
130 l-62 -6 -3 43 c-3 49 -26 62 -59 32 -25 -23 -24 -69 2 -95 19 -19 20 -26
11 -73 -16 -77 -28 -102 -74 -152 l-43 -47 -5 154 -5 154 -34 3 c-18 2 -38 -1
-44 -7 -6 -6 -18 -5 -34 6 -30 20 -92 12 -133 -17 -35 -25 -62 -74 -79 -144
-17 -69 -60 -156 -76 -156 -25 0 -38 78 -32 192 7 122 4 129 -65 128 -23 0
-62 2 -84 6 -83 12 -139 -43 -173 -169 -36 -131 -76 -189 -96 -139 -12 30 -18
176 -10 265 l7 87 44 0 c37 0 44 3 44 20 0 17 -7 20 -39 20 l-40 0 -3 53 -3
52 -37 3 c-20 2 -39 -1 -42 -6z m375 -232 c15 -8 19 -21 19 -58 0 -62 -26
-179 -45 -208 -21 -33 -53 -31 -66 4 -22 56 10 231 48 260 20 15 20 15 44 2z
m1194 -4 c18 -13 19 -20 8 -104 -14 -109 -43 -182 -72 -182 -28 0 -41 29 -41
92 0 94 40 208 73 208 7 0 22 -6 32 -14z m-751 -12 c20 -52 -6 -217 -40 -255
-43 -47 -68 -6 -62 100 6 98 36 171 71 171 14 0 28 -7 31 -16z m1155 -5 c-6
-13 -9 -48 -7 -84 3 -49 10 -70 32 -99 l27 -36 -30 -31 c-37 -36 -50 -34 -73
12 -41 79 -7 259 49 259 11 0 11 -4 2 -21z m71 -111 c0 -26 -4 -49 -9 -53 -20
-12 -42 130 -24 149 13 12 32 -46 33 -96z m-2240 -65 c0 -9 -7 -12 -17 -9 -10
3 -39 8 -65 12 -27 3 -48 9 -48 13 0 6 26 96 35 120 6 16 95 -112 95 -136z
m-12 -51 c10 -7 8 -12 -5 -24 -29 -24 -49 -28 -72 -12 -36 25 -26 44 22 44 23
0 48 -4 55 -8z m1032 -228 c-20 -103 -65 -157 -117 -138 -24 8 -28 16 -31 50
-2 29 3 48 18 67 28 35 134 108 139 95 1 -5 -2 -38 -9 -74z"/>
<path d="M2620 899 c-35 -14 -70 -49 -70 -71 0 -21 22 -23 50 -6 16 10 28 9
67 -7 69 -27 107 -24 143 10 49 47 34 96 -16 56 -25 -19 -28 -20 -62 -5 -49
21 -83 34 -85 33 -1 0 -13 -5 -27 -10z"/>
</g>
</svg>
